<?xml version="1.0" encoding="UTF-8"?>
<svg version="1.1" xmlns="http://www.w3.org/2000/svg" width="512" height="512">
<path d="M0 0 C0.9806543 0.19867676 1.96130859 0.39735352 2.97167969 0.60205078 C53.03384234 11.08072547 98.18369688 34.51001221 135 70 C135.55606934 70.53415527 136.11213867 71.06831055 136.68505859 71.61865234 C144.00060862 78.68230395 150.78133366 85.93368236 157 94 C157.67796631 94.86334961 157.67796631 94.86334961 158.36962891 95.74414062 C166.42220577 106.01487305 173.5193035 116.67316137 180 128 C180.43054688 128.75120117 180.86109375 129.50240234 181.3046875 130.27636719 C193.99983698 152.71408213 202.37804935 177.02992874 207.75 202.1875 C208.04825684 203.57473267 208.04825684 203.57473267 208.35253906 204.98999023 C211.57578045 220.85878712 212.37711899 236.47405419 212.3125 252.625 C212.31034485 253.59588562 212.3081897 254.56677124 212.30596924 255.56707764 C212.25491637 269.90585186 211.85949913 283.90546967 209 298 C208.70198486 299.52318848 208.70198486 299.52318848 208.39794922 301.07714844 C200.14405479 342.34043787 182.47536686 380.30670975 156 413 C155.55994629 413.54446777 155.11989258 414.08893555 154.66650391 414.64990234 C143.22264806 428.67957045 130.47208721 442.0808288 116 453 C115.33838867 453.51095215 114.67677734 454.0219043 113.99511719 454.54833984 C97.74959841 467.07702674 80.53785173 477.2529678 62 486 C61.08033447 486.43989258 61.08033447 486.43989258 60.14208984 486.88867188 C41.06301906 495.93699803 20.72257134 502.0996364 0 506 C-0.83063965 506.16371094 -1.6612793 506.32742188 -2.51708984 506.49609375 C-29.38343372 511.5864482 -60.20523542 511.34298668 -87 506 C-88.60798315 505.70653898 -90.21605711 505.41357511 -91.82421875 505.12109375 C-117.18334216 500.31390835 -141.27342666 491.1562097 -164 479 C-164.97694824 478.48252197 -164.97694824 478.48252197 -165.97363281 477.95458984 C-186.99381982 466.74758132 -205.87221385 452.51075393 -223 436 C-223.55606934 435.46584473 -224.11213867 434.93168945 -224.68505859 434.38134766 C-232.00118445 427.31714005 -238.77739315 420.06399051 -245 412 C-245.66999023 411.15260254 -245.66999023 411.15260254 -246.35351562 410.28808594 C-254.92610463 399.43604667 -262.16405757 388.0115883 -269 376 C-269.41378906 375.28231445 -269.82757813 374.56462891 -270.25390625 373.82519531 C-282.67065558 352.13686335 -290.54784924 328.17487541 -295.75 303.8125 C-295.94883789 302.88767822 -296.14767578 301.96285645 -296.35253906 301.01000977 C-299.57578045 285.14121288 -300.37711899 269.52594581 -300.3125 253.375 C-300.31034485 252.40411438 -300.3081897 251.43322876 -300.30596924 250.43292236 C-300.25491637 236.09414814 -299.85949913 222.09453033 -297 208 C-296.80132324 206.98454102 -296.60264648 205.96908203 -296.39794922 204.92285156 C-288.14405479 163.65956213 -270.47536686 125.69329025 -244 93 C-243.55994629 92.45553223 -243.11989258 91.91106445 -242.66650391 91.35009766 C-231.22264806 77.32042955 -218.47208721 63.9191712 -204 53 C-203.33838867 52.48904785 -202.67677734 51.9780957 -201.99511719 51.45166016 C-145.97655154 8.24964986 -70.31795363 -14.37089284 0 0 Z " fill="#575F64" transform="translate(300,3)"/>
<path d="M0 0 C4.68464119 1.59151918 8.4166344 4.1311039 12.4375 6.9375 C13.49094604 7.66948608 13.49094604 7.66948608 14.56567383 8.41625977 C26.48853709 16.77957857 37.5173459 25.8949858 48 36 C48.55606934 36.53415527 49.11213867 37.06831055 49.68505859 37.61865234 C57.00060862 44.68230395 63.78133366 51.93368236 70 60 C70.45197754 60.57556641 70.90395508 61.15113281 71.36962891 61.74414062 C79.42220577 72.01487305 86.5193035 82.67316137 93 94 C93.43054688 94.75120117 93.86109375 95.50240234 94.3046875 96.27636719 C106.99983698 118.71408213 115.37804935 143.02992874 120.75 168.1875 C120.94883789 169.11232178 121.14767578 170.03714355 121.35253906 170.98999023 C124.57578045 186.85878712 125.37711899 202.47405419 125.3125 218.625 C125.30926727 220.08132843 125.30926727 220.08132843 125.30596924 221.56707764 C125.25491637 235.90585186 124.85949913 249.90546967 122 264 C121.70198486 265.52318848 121.70198486 265.52318848 121.39794922 267.07714844 C113.14405479 308.34043787 95.47536686 346.30670975 69 379 C68.55994629 379.54446777 68.11989258 380.08893555 67.66650391 380.64990234 C56.23024339 394.67025891 43.48473546 408.11350047 29 419 C28.27989746 419.54285645 27.55979492 420.08571289 26.81787109 420.64501953 C3.73199138 438 3.73199138 438 0 438 C-8.75344956 421.88452579 -17.44215078 405.73532208 -26.09277344 389.56445312 C-29.22584579 383.70820571 -32.36320694 377.85425503 -35.5 372 C-38.95598489 365.55003134 -42.41194479 359.10005208 -45.86360168 352.64776611 C-54.19549452 337.07285793 -62.56913813 321.52157651 -71 306 C-67.8516061 302.80136577 -64.6337887 299.75949245 -61.25 296.8125 C-41.60704239 279.12218061 -28.63854075 254.66393725 -26.79345703 228.01708984 C-26.69737204 224.92494524 -26.67074824 221.84357111 -26.6875 218.75 C-26.69313965 217.65244385 -26.6987793 216.5548877 -26.70458984 215.42407227 C-27.1139824 187.94005024 -39.08597871 163.09870004 -58.125 143.5625 C-62.16158483 139.64726819 -66.39638126 136.21832426 -71 133 C-65.57659613 122.03752725 -59.988992 111.17533517 -54.25 100.375 C-53.45124883 98.86865469 -52.65250215 97.362307 -51.85375977 95.85595703 C-47.14518561 86.98573806 -42.38292613 78.14722515 -37.54785156 69.34521484 C-33.12200084 61.27053647 -28.81026225 53.1367268 -24.5 45 C-19.44202906 35.45370376 -14.36361237 25.92050385 -9.1875 16.4375 C-8.71441406 15.57060547 -8.24132812 14.70371094 -7.75390625 13.81054688 C-5.21723739 9.17853019 -2.6353753 4.57658414 0 0 Z " fill="#32393F" transform="translate(387,37)"/>
<path d="M0 0 C2.76211712 2.19960731 5.41103772 4.47332827 8.03125 6.83984375 C8.87300781 7.59910156 9.71476563 8.35835937 10.58203125 9.140625 C28.93436426 26.57962262 41.54146475 51.92048079 42.234375 77.4296875 C42.63882696 109.95223296 33.40136462 136.88370504 10.71875 160.58984375 C-11.12005317 181.66398295 -39.35337251 190.72162219 -69.234375 190.21484375 C-98.35134811 189.05612396 -123.8074496 174.41894522 -143.23828125 153.3828125 C-152.84559056 141.95636769 -159.52122655 129.02253998 -163.96875 114.83984375 C-164.17902832 114.19917969 -164.38930664 113.55851563 -164.60595703 112.8984375 C-172.5232097 88.07474742 -168.85923555 59.70842085 -157.00048828 36.72949219 C-142.45605686 10.09108726 -118.9072375 -8.65238183 -89.9375 -17.4140625 C-59.09990052 -25.9100265 -25.64123849 -18.65737485 0 0 Z " fill="#FE637B" transform="translate(318.96875,171.16015625)"/>
<path d="M0 0 C0.83660156 0.50789063 1.67320312 1.01578125 2.53515625 1.5390625 C27.5847629 16.47556443 55.95840693 22.98648967 84.85400391 15.83911133 C95.85599152 12.81848204 105.93953308 8.42340945 115.609375 2.3203125 C118 1 118 1 121 1 C121.44166504 1.83321777 121.88333008 2.66643555 122.33837891 3.52490234 C131.02321855 19.90583966 139.74009899 36.26805544 148.54296875 52.5859375 C152.18711175 59.34220147 155.81369457 66.10781078 159.4375 72.875 C160.05592773 74.02935547 160.67435547 75.18371094 161.31152344 76.37304688 C164.20164994 81.7689506 167.08954631 87.16601552 169.97079468 92.56666565 C171.28320106 95.02634479 172.59659962 97.48549289 173.91040039 99.94442749 C174.54934554 101.14042818 175.188021 102.336573 175.82641602 103.53286743 C179.94759343 111.25175544 184.12028218 118.93458906 188.56396484 126.47363281 C190.16156968 129.23277557 191 130.74652229 191 134 C163.53431539 149.58093121 135.14902168 161.13718943 104 167 C103.16936035 167.16371094 102.3387207 167.32742188 101.48291016 167.49609375 C74.61656628 172.5864482 43.79476458 172.34298668 17 167 C15.39201685 166.70653898 13.78394289 166.41357511 12.17578125 166.12109375 C-17.48950179 160.49761406 -44.76088043 148.67611773 -71 134 C-69.3263632 128.09304659 -66.48314663 122.89771724 -63.625 117.5 C-62.82098755 115.97040649 -62.82098755 115.97040649 -62.00073242 114.40991211 C-58.0219521 106.86623777 -53.95343166 99.37364988 -49.84960938 91.89746094 C-45.36914291 83.7196057 -40.99134502 75.48911799 -36.625 67.25 C-29.70469387 54.19505655 -22.73650829 41.16743107 -15.71142578 28.16845703 C-13.89752567 24.81028361 -12.08736911 21.45010702 -10.27734375 18.08984375 C-9.08087735 15.87231587 -7.88426789 13.65486518 -6.6875 11.4375 C-6.1296582 10.40109375 -5.57181641 9.3646875 -4.99707031 8.296875 C-4.23088379 6.87955078 -4.23088379 6.87955078 -3.44921875 5.43359375 C-2.99893311 4.59884521 -2.54864746 3.76409668 -2.0847168 2.90405273 C-1 1 -1 1 0 0 Z " fill="#7B8287" transform="translate(196,342)"/>
<path d="M0 0 C0.85596771 -0.00705963 1.71193542 -0.01411926 2.59384155 -0.02139282 C38.73934482 -0.25179099 38.73934482 -0.25179099 55.64453125 3.203125 C56.62518555 3.40180176 57.60583984 3.60047852 58.61621094 3.80517578 C88.25151243 10.00823748 116.7838556 20.31337887 142.64453125 36.203125 C140.97089445 42.11007841 138.12767788 47.30540776 135.26953125 52.703125 C134.73352295 53.722854 134.19751465 54.74258301 133.64526367 55.79321289 C129.66801511 63.33398306 125.60170999 70.82406913 121.49853516 78.296875 C116.97097167 86.55891578 112.55393371 94.87768064 108.14453125 103.203125 C102.86645866 113.16640271 97.54946559 123.10450439 92.12792969 132.99072266 C85.54255129 145.01233775 79.10289604 157.11295981 72.64453125 169.203125 C69.36019613 168.48149269 66.79729631 167.24903506 63.87402344 165.57470703 C57.58426543 161.98268883 51.26933573 159.11559704 44.39453125 156.828125 C43.33371338 156.4710144 43.33371338 156.4710144 42.25146484 156.10668945 C15.31722849 147.5158639 -13.49016873 151.50595052 -38.35546875 164.203125 C-41.76456851 166.09660793 -45.09526335 168.06361521 -48.35546875 170.203125 C-55.05411295 158.35294361 -61.48169027 146.36737311 -67.85031128 134.33789062 C-72.30163566 125.93135345 -76.77695719 117.54135737 -81.35546875 109.203125 C-86.6489652 99.56014818 -91.80678786 89.8476871 -96.95513916 80.12677002 C-102.13152082 70.35513834 -107.3596977 60.6149484 -112.68945312 50.92578125 C-119.35546875 38.79343931 -119.35546875 38.79343931 -119.35546875 36.203125 C-83.38653017 15.24654072 -42.07142575 0.23316398 0 0 Z " fill="#7B8287" transform="translate(244.35546875,-0.203125)"/>
<path d="M0 0 C0.66249756 1.24982666 0.66249756 1.24982666 1.33837891 2.52490234 C10.02321855 18.90583966 18.74009899 35.26805544 27.54296875 51.5859375 C31.18711175 58.34220147 34.81369457 65.10781078 38.4375 71.875 C39.05592773 73.02935547 39.67435547 74.18371094 40.31152344 75.37304688 C43.20164994 80.7689506 46.08954631 86.16601552 48.97079468 91.56666565 C50.28320106 94.02634479 51.59659962 96.48549289 52.91040039 98.94442749 C53.54934554 100.14042818 54.188021 101.336573 54.82641602 102.53286743 C58.94759343 110.25175544 63.12028218 117.93458906 67.56396484 125.47363281 C69.16156968 128.23277557 70 129.74652229 70 133 C39.05314302 150.55575573 6.80596888 162.81062458 -28.5625 167.8125 C-29.3985376 167.93665283 -30.2345752 168.06080566 -31.09594727 168.1887207 C-41.15481358 169.47079801 -50.65442029 169 -61 169 C-61 119.17 -61 69.34 -61 18 C-52.09 17.01 -52.09 17.01 -43 16 C-30.44226738 13.39185553 -11.31141993 0 0 0 Z " fill="#575F64" transform="translate(317,343)"/>
<path d="M0 0 C24.53926658 0 24.53926658 0 32.25 1.125 C33.18851807 1.25624268 34.12703613 1.38748535 35.09399414 1.52270508 C68.83638085 6.56832165 101.90609578 18.12363983 131 36 C129.3263632 41.90695341 126.48314663 47.10228276 123.625 52.5 C123.0889917 53.519729 122.5529834 54.53945801 122.00073242 55.59008789 C118.02348386 63.13085806 113.95717874 70.62094413 109.85400391 78.09375 C105.32644042 86.35579078 100.90940246 94.67455564 96.5 103 C91.22192741 112.96327771 85.90493434 122.90137939 80.48339844 132.78759766 C73.89802004 144.80921275 67.45836479 156.90983481 61 169 C57.71566488 168.27836769 55.15276506 167.04591006 52.22949219 165.37158203 C35.64142786 155.89830359 18.9871425 152.46054942 0 151 C0 101.17 0 51.34 0 0 Z " fill="#575F64" transform="translate(256,0)"/>
<path d="M0 0 C15.18474088 0 15.18474088 0 21.875 1.625 C22.63329102 1.80321289 23.39158203 1.98142578 24.17285156 2.16503906 C41.75968261 6.51209768 57.55861541 14.86005053 71 27 C71.84175781 27.75925781 72.68351562 28.51851562 73.55078125 29.30078125 C91.90311426 46.73977887 104.51021475 72.08063704 105.203125 97.58984375 C105.60757696 130.11238921 96.37011462 157.04386129 73.6875 180.75 C53.66416753 200.07223539 27.56473114 210 0 210 C0 190.2 0 170.4 0 150 C5.94 149.01 5.94 149.01 12 148 C23.47484594 144.76050268 32.56690417 137.62359 38.75 127.41796875 C44.47203853 116.34940047 46.09484775 104.43287649 43.08203125 92.3046875 C39.03070301 81.00292394 31.86043881 71.29443061 21.17578125 65.45703125 C13.92760781 62.2261461 8.26190948 61.37698491 0 60 C0 40.2 0 20.4 0 0 Z " fill="#E53950" transform="translate(256,151)"/>
<path d="M0 0 C8.59006999 6.88492501 16.30179399 16.37229941 18.0859375 27.671875 C19.10278779 43.4080499 16.54158524 55.37721867 6.34375 67.79296875 C-1.02408795 75.87924733 -11.52752127 80.96447796 -22.421875 82.0078125 C-37.0580197 82.16587022 -48.52022653 78.76021607 -59.16796875 68.5 C-63.42860375 63.94904549 -66.51753221 59.41593966 -68.9140625 53.671875 C-69.3059375 52.82625 -69.6978125 51.980625 -70.1015625 51.109375 C-73.88838794 39.74889867 -72.5265307 27.52072772 -67.9140625 16.671875 C-61.24769349 4.46171207 -51.14649232 -3.04200591 -38.2265625 -7.640625 C-24.64286405 -10.46713195 -11.22625013 -8.18665172 0 0 Z " fill="#DCE0EA" transform="translate(282.9140625,219.328125)"/>
<path d="M0 0 C0 29.7 0 59.4 0 90 C-12.91574632 90 -22.98001056 85.76449589 -32.25390625 76.828125 C-36.51454125 72.27717049 -39.60346971 67.74406466 -42 62 C-42.391875 61.154375 -42.78375 60.30875 -43.1875 59.4375 C-46.97432544 48.07702367 -45.6124682 35.84885272 -41 25 C-34.75787787 13.56689029 -25.11960638 5.48888956 -12.8359375 1.25390625 C-8.32153435 -0.00977803 -4.82935683 0 0 0 Z " fill="#F2F5FB" transform="translate(256,211)"/>
</svg>
