<?xml version="1.0" encoding="UTF-8"?>
<svg version="1.1" xmlns="http://www.w3.org/2000/svg" width="512" height="512">
<path d="M0 0 C0.98207428 0.00465271 1.96414856 0.00930542 2.97598267 0.01409912 C17.35650284 0.09381975 31.42972848 0.49947848 45.5625 3.375 C46.56055664 3.56835938 47.55861328 3.76171875 48.58691406 3.9609375 C107.49102914 15.60164094 164.98928874 47.94358032 201.5625 96.375 C202.06813477 97.02597656 202.57376953 97.67695312 203.09472656 98.34765625 C212.45456804 110.4102531 220.3592919 122.92123115 227.5625 136.375 C227.94631836 137.08221191 228.33013672 137.78942383 228.72558594 138.51806641 C239.99813673 159.42584275 247.35326111 182.33408833 252.3125 205.5 C252.51125732 206.41628174 252.71001465 207.33256348 252.91479492 208.27661133 C256.14042887 224.09784118 256.94335755 239.89247632 256.875 256 C256.87284485 256.91942383 256.8706897 257.83884766 256.86846924 258.78613281 C256.60313731 329.53313381 227.32779925 393.15912717 177.49169922 442.67993164 C171.76465749 448.29791405 165.99488472 453.56695486 159.5625 458.375 C158.44134859 459.23690416 157.32025894 460.09888867 156.19921875 460.9609375 C146.74574054 468.14050525 136.83234483 474.43262882 126.5625 480.375 C125.88525879 480.76929199 125.20801758 481.16358398 124.51025391 481.56982422 C101.5916244 494.75211173 76.01677437 503.35760918 50.1875 508.6875 C49.47682373 508.83493652 48.76614746 508.98237305 48.03393555 509.13427734 C32.39141634 512.11963787 16.75580394 512.7498098 0.875 512.6875 C-0.09239105 512.68567719 -1.0597821 512.68385437 -2.05648804 512.68197632 C-16.38940977 512.63654826 -30.33523917 512.12766072 -44.4375 509.375 C-45.33452637 509.21402832 -46.23155273 509.05305664 -47.15576172 508.88720703 C-106.8419365 498.08704921 -164.65087867 464.04652976 -201.4375 415.375 C-201.9030127 414.76946289 -202.36852539 414.16392578 -202.84814453 413.54003906 C-217.00030685 395.04065751 -228.68437424 374.9648599 -237.4375 353.375 C-237.75267578 352.60414063 -238.06785156 351.83328125 -238.39257812 351.0390625 C-248.89474917 324.99192429 -255.48476931 296.17424619 -255.640625 268.01953125 C-255.64763931 267.1634729 -255.65465363 266.30741455 -255.66188049 265.42541504 C-255.67927398 262.67938908 -255.68573257 259.93357902 -255.6875 257.1875 C-255.68817474 256.24748138 -255.68884949 255.30746277 -255.68954468 254.33895874 C-255.67334307 240.13075628 -255.12279265 226.36112345 -252.4375 212.375 C-252.2818457 211.49102539 -252.12619141 210.60705078 -251.96582031 209.69628906 C-243.30551421 161.00151402 -220.01620472 116.172469 -186.15625 80.28125 C-183.92975344 77.90120195 -181.79176882 75.48686315 -179.6875 73 C-176.24357596 69.04889475 -172.471237 65.71369308 -168.4375 62.375 C-167.60750488 61.67648926 -167.60750488 61.67648926 -166.76074219 60.96386719 C-157.38939218 53.0864293 -147.82467016 45.85739787 -137.4375 39.375 C-136.79796387 38.97216797 -136.15842773 38.56933594 -135.49951172 38.15429688 C-107.77026621 20.82609295 -76.76828295 8.63928428 -44.4375 3.375 C-43.68975311 3.25185425 -42.94200623 3.1287085 -42.17160034 3.00183105 C-28.05837101 0.72844484 -14.28347896 -0.12160302 0 0 Z " fill="#2A3332" transform="translate(255.4375,-0.375)"/>
<path d="M0 0 C0.98207428 0.00465271 1.96414856 0.00930542 2.97598267 0.01409912 C17.35650284 0.09381975 31.42972848 0.49947848 45.5625 3.375 C46.56055664 3.56835938 47.55861328 3.76171875 48.58691406 3.9609375 C107.49102914 15.60164094 164.98928874 47.94358032 201.5625 96.375 C202.06813477 97.02597656 202.57376953 97.67695312 203.09472656 98.34765625 C219.20065902 119.10435077 237.04555387 145.56211871 242.01757812 171.78710938 C242.85496097 175.76392754 244.12757676 179.57410949 245.375 183.4375 C263.874911 243.25425908 257.95659221 308.91635002 231.5625 365.375 C231.23282227 366.0880127 230.90314453 366.80102539 230.56347656 367.53564453 C223.27784393 383.15352605 214.3113909 397.9002213 203.5625 411.375 C202.48742187 412.73818359 202.48742187 412.73818359 201.390625 414.12890625 C197.32463983 419.19696932 193.0981963 424.11101664 188.75 428.9375 C188.06574951 429.70707031 188.06574951 429.70707031 187.36767578 430.4921875 C184.82054707 433.27872565 183.02583685 434.64333158 179.5625 436.375 C146.2325 403.045 112.9025 369.715 78.5625 335.375 C83.01089858 328.70240214 83.01089858 328.70240214 85.5 325.9375 C90.55902265 320.31479795 94.38774664 314.28508563 97.5625 307.4375 C97.90498779 306.70168701 98.24747559 305.96587402 98.6003418 305.20776367 C101.96861264 297.7785246 104.42919115 290.23753601 106.5625 282.375 C106.8821875 281.29605469 107.201875 280.21710938 107.53125 279.10546875 C114.47950637 252.50265385 108.24829739 223.66455756 94.6628418 200.30029297 C91.41100184 194.92074379 87.67429747 190.11455281 83.5625 185.375 C82.88703125 184.55515625 82.2115625 183.7353125 81.515625 182.890625 C64.9252668 163.39392668 42.12776535 153.46016639 17.5625 148.375 C16.76908203 148.198479 15.97566406 148.02195801 15.15820312 147.84008789 C1.80640787 145.44776566 -13.46045621 146.70950244 -26.4375 150.375 C-27.65179688 150.7153125 -28.86609375 151.055625 -30.1171875 151.40625 C-48.04199232 156.92157456 -62.43897407 165.96721565 -76.4375 178.375 C-79.88219918 176.89119764 -82.11308307 174.94649259 -84.75286865 172.30014038 C-85.60819687 171.44756149 -86.46352509 170.5949826 -87.34477234 169.71656799 C-88.28430334 168.76995937 -89.22373799 167.82325511 -90.16308594 166.87646484 C-91.1583075 165.88067898 -92.15396998 164.88533361 -93.15003967 163.89039612 C-95.85049428 161.19051531 -98.54473816 158.48451264 -101.23791409 155.77737379 C-104.05438388 152.94840123 -106.87651871 150.12509167 -109.69805908 147.30117798 C-115.03913041 141.95389055 -120.37508304 136.60152533 -125.70921826 131.24731982 C-131.78263503 125.15154811 -137.861732 119.06145466 -143.94131422 112.97183299 C-156.44637648 100.4458658 -168.9442829 87.91278085 -181.4375 75.375 C-177.39351554 70.48520409 -173.32048671 66.43928235 -168.4375 62.375 C-167.88126953 61.90642578 -167.32503906 61.43785156 -166.75195312 60.95507812 C-157.38360332 53.08094571 -147.8208884 45.85503776 -137.4375 39.375 C-136.79796387 38.97216797 -136.15842773 38.56933594 -135.49951172 38.15429688 C-107.77026621 20.82609295 -76.76828295 8.63928428 -44.4375 3.375 C-43.68975311 3.25185425 -42.94200623 3.1287085 -42.17160034 3.00183105 C-28.05837101 0.72844484 -14.28347896 -0.12160302 0 0 Z " fill="#121C1B" transform="translate(255.4375,-0.375)"/>
<path d="M0 0 C24.06176007 18.94223665 41.90737561 44.27404184 45.65966797 75.39599609 C47.04816356 90.57499213 46.29528803 105.15026632 41.875 119.75 C41.66069336 120.46736328 41.44638672 121.18472656 41.22558594 121.92382812 C36.66287768 136.7874978 30.12712585 149.95571115 19.875 161.75 C19.4315625 162.33652344 18.988125 162.92304688 18.53125 163.52734375 C3.70625535 182.73655938 -24.10975501 195.64066519 -47.46875 199.2421875 C-77.62132143 203.01125893 -106.40294398 196.0903089 -130.67822266 177.67358398 C-151.38468994 161.49301433 -164.32873079 141.03006199 -171.125 115.75 C-171.60453125 114.12964844 -171.60453125 114.12964844 -172.09375 112.4765625 C-179.00230392 86.05774058 -172.88478103 57.21949753 -159.44067383 33.96313477 C-144.0153165 8.49268647 -120.12232513 -9.47823785 -91.43359375 -17.25 C-88.33788745 -17.98254484 -85.2503933 -18.65813397 -82.125 -19.25 C-80.80628906 -19.52457031 -80.80628906 -19.52457031 -79.4609375 -19.8046875 C-51.8922798 -23.48481277 -22.53770936 -16.43374641 0 0 Z " fill="#FE7917" transform="translate(320.125,166.25)"/>
<path d="M0 0 C0.50863586 0.48608231 1.01727173 0.97216461 1.5413208 1.47297668 C4.78745832 3.4890704 7.632762 3.44011566 11.33886719 3.43237305 C12.43702003 3.44766052 12.43702003 3.44766052 13.55735779 3.46325684 C15.97060805 3.49338514 18.38346138 3.50265224 20.796875 3.51171875 C22.47269001 3.52856561 24.14849239 3.54671586 25.82427979 3.56611633 C30.23008272 3.61362191 34.63583442 3.64342757 39.04180908 3.66955566 C43.5396944 3.69935842 48.03740318 3.74588972 52.53515625 3.79101562 C61.3566785 3.87705502 70.17823708 3.94439745 79 4 C79.01804126 5.90597068 79.03086016 7.81199123 79.04150391 9.71801758 C79.04920807 10.77942459 79.05691223 11.8408316 79.06484985 12.93440247 C78.97878283 17.00298304 78.33159 20.74500889 77.375 24.6875 C77.19678711 25.44587158 77.01857422 26.20424316 76.83496094 26.9855957 C72.37995167 45.18819066 65.38840854 61.74808085 53 76 C52.5565625 76.58652344 52.113125 77.17304688 51.65625 77.77734375 C36.83125535 96.98655938 9.01524499 109.89066519 -14.34375 113.4921875 C-44.49632143 117.26125893 -73.27794398 110.3403089 -97.55322266 91.92358398 C-118.1685478 75.81423516 -131.38002466 55.26110745 -138 30 C-138.47953125 28.17082031 -138.47953125 28.17082031 -138.96875 26.3046875 C-140.85261545 18.36803214 -141 12.59579367 -141 4 C-114.93 4 -88.86 4 -62 4 C-61.01 8.95 -61.01 8.95 -60 14 C-56.76636429 22.04437797 -51.43693314 27.59854978 -44 32 C-36.43153342 34.94861497 -28.45163701 35.41951379 -20.66796875 32.9375 C-12.63824566 29.22059673 -7.53291476 24.45443631 -3.1875 16.8125 C-1.47166145 11.30375518 -0.73024791 5.71311601 0 0 Z " fill="#F64C19" transform="translate(287,252)"/>
<path d="M0 0 C0.7629538 0.72912346 0.7629538 0.72912346 1.5413208 1.47297668 C4.78745832 3.4890704 7.632762 3.44011566 11.33886719 3.43237305 C12.07096909 3.4425647 12.80307098 3.45275635 13.55735779 3.46325684 C15.97060805 3.49338514 18.38346138 3.50265224 20.796875 3.51171875 C22.47269001 3.52856561 24.14849239 3.54671586 25.82427979 3.56611633 C30.23008272 3.61362191 34.63583442 3.64342757 39.04180908 3.66955566 C43.5396944 3.69935842 48.03740318 3.74588972 52.53515625 3.79101562 C61.3566785 3.87705502 70.17823708 3.94439745 79 4 C79.01804126 5.90597068 79.03086016 7.81199123 79.04150391 9.71801758 C79.04920807 10.77942459 79.05691223 11.8408316 79.06484985 12.93440247 C78.97878283 17.00298304 78.33159 20.74500889 77.375 24.6875 C77.19678711 25.44587158 77.01857422 26.20424316 76.83496094 26.9855957 C72.37995167 45.18819066 65.38840854 61.74808085 53 76 C52.5565625 76.58652344 52.113125 77.17304688 51.65625 77.77734375 C44.5759855 86.95146696 33.67346931 93.85671329 24 100 C19.39590367 96.14902009 15.01832588 92.16072823 10.78930664 87.90283203 C10.21282379 87.32649521 9.63634094 86.75015839 9.04238892 86.15635681 C7.16259405 84.27587265 5.28635307 82.39188591 3.41015625 80.5078125 C2.09758569 79.19337426 0.78479224 77.87915856 -0.5282135 76.56515503 C-3.96463602 73.12493488 -7.39804337 69.68172107 -10.83081055 66.237854 C-14.34175501 62.71663589 -17.8555717 59.19828651 -21.36914062 55.6796875 C-28.24889212 48.78924732 -35.12545855 41.89563795 -42 35 C-38.33416723 33.97330978 -35.3099977 34.09368256 -31.5 34.3125 C-22.84984666 34.357506 -16.30727909 31.79377784 -9.8046875 26.06640625 C-2.67140671 18.41081411 -1.29023264 10.09417304 0 0 Z " fill="#DF360E" transform="translate(287,252)"/>
<path d="M0 0 C32.7554562 11.33096996 60.55654518 29.55654518 85 54 C85.66 54.61359375 86.32 55.2271875 87 55.859375 C98.57618355 66.80248601 107.84769809 80.37188252 116 94 C116.37608398 94.62729004 116.75216797 95.25458008 117.13964844 95.90087891 C135.75331842 127.25391313 145.81199112 162.7607109 146.4375 199.25 C146.45973633 199.96986084 146.48197266 200.68972168 146.50488281 201.43139648 C146.48957356 204.95295095 146.04720361 206.92329414 144.1875 209.9453125 C142 212 142 212 138.5625 212.625 C134.01304694 211.82685034 132.79976524 210.64158654 130 207 C129.33660986 204.08229438 129.40362011 201.23172475 129.4375 198.25 C128.62620336 160.09780117 115.57680812 120.85057017 93 90 C92.26652344 88.98292969 91.53304687 87.96585937 90.77734375 86.91796875 C65.01338355 51.9232988 29.21354514 27.95655483 -12 15 C-13.06379883 14.66508545 -14.12759766 14.3301709 -15.22363281 13.98510742 C-23.55260518 11.47651414 -31.75433743 9.91319452 -40.375 8.8125 C-41.63634766 8.64161865 -42.89769531 8.4707373 -44.19726562 8.29467773 C-52.15694339 7.25055891 -60.00371503 6.55752623 -68.03125 6.56640625 C-72.02677856 5.80410146 -73.50931824 4.1442001 -76 1 C-76.5625 -2.5625 -76.5625 -2.5625 -76 -6 C-63.85665662 -21.38156828 -15.78445113 -5.17861883 0 0 Z " fill="#706A68" transform="translate(324,52)"/>
<path d="M0 0 C4.57892122 0.8176645 5.7448158 1.87720736 8.5 5.625 C9.19927144 9.32960176 9.14472654 12.98900225 9.125 16.75 C10.10556405 66.72495378 32.36363866 112.87705079 66.5 148.625 C67.10199219 149.27984375 67.70398438 149.9346875 68.32421875 150.609375 C77.56424872 160.38472157 89.34163914 168.22711614 100.5 175.625 C101.49 176.29144531 102.48 176.95789063 103.5 177.64453125 C121.43562368 189.24320626 141.73297691 196.63137731 162.50219727 201.16967773 C164.52033365 201.62963427 166.51756736 202.14637469 168.51953125 202.671875 C172.41486233 203.65378346 176.32324599 204.24046155 180.3125 204.6875 C181.02954102 204.77346436 181.74658203 204.85942871 182.48535156 204.94799805 C186.54487574 205.40454161 190.56820222 205.68941779 194.65234375 205.796875 C195.50272217 205.82257568 196.35310059 205.84827637 197.22924805 205.87475586 C198.8748446 205.91571647 200.52113452 205.93570866 202.16723633 205.93188477 C206.3875783 206.03600727 208.05112907 206.27872814 211.5078125 208.9453125 C213.5 211.625 213.5 211.625 214.125 215.1875 C213.5 218.625 213.5 218.625 211.5546875 220.8125 C207.30013169 223.33694232 203.8595067 223.18553677 199 223.0625 C198.07727295 223.04928711 197.1545459 223.03607422 196.20385742 223.02246094 C186.17058606 222.76726964 176.36184542 221.42476255 166.5 219.625 C165.73091309 219.48578125 164.96182617 219.3465625 164.16943359 219.203125 C121.34257133 211.17831281 83.09215588 189.35874526 52.5 158.625 C51.94940918 158.0769873 51.39881836 157.52897461 50.83154297 156.96435547 C13.54156573 119.49759612 -7.66088587 66.95763495 -8.9375 14.3125 C-8.97198242 13.51779297 -9.00646484 12.72308594 -9.04199219 11.90429688 C-9.07293952 7.67725583 -8.85704211 6.08957764 -6.19140625 2.62109375 C-3.5 0.625 -3.5 0.625 0 0 Z " fill="#706B69" transform="translate(50.5,247.375)"/>
<path d="M0 0 C2.64624023 1.55908203 2.64624023 1.55908203 5 4 C5.67646068 6.67437942 6.03276569 8.84578461 6.22265625 11.5546875 C6.33099037 12.66168503 6.33099037 12.66168503 6.44151306 13.79104614 C6.6700419 16.15095243 6.86856361 18.51201919 7.0625 20.875 C8.02707397 32.05704299 9.39604475 42.30416905 13 53 C13.28045166 53.83499023 13.56090332 54.66998047 13.84985352 55.53027344 C14.60819682 57.68519526 15.41099728 59.81279518 16.25 61.9375 C16.54737061 62.6912793 16.84474121 63.44505859 17.15112305 64.22167969 C25.07541925 83.81705245 36.86950307 100.26767404 52 115 C52.44988281 115.495 52.89976562 115.99 53.36328125 116.5 C73.61350871 138.20743986 108.9318918 153.75293664 138.32104492 155.10693359 C139.11486572 155.12965332 139.90868652 155.15237305 140.7265625 155.17578125 C141.5309375 155.19962891 142.3353125 155.22347656 143.1640625 155.24804688 C144.81223101 155.29121319 146.46075594 155.32235561 148.109375 155.34179688 C154.06606252 155.54769524 157.68258344 156.68258344 162 161 C162.51380288 164.76788779 162.34306031 166.49134997 160.1953125 169.67578125 C155.44173839 173.13345435 151.22686563 172.6260424 145.5 172.4375 C144.41356201 172.41574707 143.32712402 172.39399414 142.20776367 172.37158203 C121.32178435 171.81762708 101.76055297 166.01161933 83 157 C81.38351563 156.24203125 81.38351563 156.24203125 79.734375 155.46875 C57.78949947 144.89019462 37.62082619 128.52327284 23 109 C22.31550781 108.09636719 21.63101563 107.19273437 20.92578125 106.26171875 C18.9033397 103.53816413 16.94023763 100.78260417 15 98 C14.41476563 97.17371094 13.82953125 96.34742188 13.2265625 95.49609375 C7.63628859 87.21186431 3.76996458 78.21612554 0 69 C-0.28262695 68.31695801 -0.56525391 67.63391602 -0.85644531 66.93017578 C-7.64880128 50.20389656 -11.39262613 32.2373184 -11.5625 14.1875 C-11.57716309 13.22118652 -11.59182617 12.25487305 -11.60693359 11.25927734 C-11.50950586 4.72927126 -11.50950586 4.72927126 -9.1796875 1.39453125 C-5.94110174 -0.67746717 -3.76358361 -0.52822226 0 0 Z " fill="#706B69" transform="translate(103,248)"/>
<path d="M0 0 C0.74459473 0.10763672 1.48918945 0.21527344 2.25634766 0.32617188 C43.29547329 6.42646601 80.91314439 31.14031967 105.4375 64.1875 C117.55652535 80.84781915 126.05188847 98.31674543 132 118 C132.29648437 118.96292969 132.59296875 119.92585938 132.8984375 120.91796875 C133.6799448 123.59908043 134.36658032 126.28025426 135 129 C135.20625 129.87527344 135.4125 130.75054687 135.625 131.65234375 C137.16187323 139.60352819 137.24037485 147.54643217 137.3125 155.625 C137.33014404 156.78845947 137.34778809 157.95191895 137.3659668 159.15063477 C137.36463745 160.79696899 137.36463745 160.79696899 137.36328125 162.4765625 C137.36626221 163.46736816 137.36924316 164.45817383 137.37231445 165.47900391 C137 168 137 168 135.72338867 169.81787109 C133.29694155 171.48225089 130.91132917 171.41296737 128.03515625 171.49609375 C125.04980414 170.76837836 123.93041933 169.36350429 122 167 C121.34985352 164.109375 121.34985352 164.109375 121.12890625 160.75 C121.03262939 159.51161377 120.93635254 158.27322754 120.8371582 156.99731445 C120.79305817 156.34493805 120.74895813 155.69256165 120.70352173 155.02041626 C117.85753956 114.24607099 99.99440376 77.10973159 69 50 C63.56071262 45.66896898 57.81146738 41.80826045 52 38 C51.13117188 37.40703125 50.26234375 36.8140625 49.3671875 36.203125 C28.87854374 22.92477051 2.09136043 15.48360662 -22.17480469 15.64160156 C-26.3600147 15.57254981 -29.18027877 15.30854589 -32.54296875 12.6796875 C-35 10 -35 10 -35.6875 6.5 C-35 3 -35 3 -33.375 0.0625 C-24.25982807 -5.50788285 -10.16082725 -1.59153705 0 0 Z " fill="#706A68" transform="translate(282,93)"/>
<path d="M0 0 C6.91360416 4.96996828 12.64357843 11.39151822 14.25 19.97265625 C15.00779421 30.12250598 14.30002898 38.56700444 7.6328125 46.67578125 C0.55035212 53.99968914 -6.07276309 57.83263377 -16.3671875 58.17578125 C-22.55377017 57.98265865 -27.0964145 56.88041123 -32.3671875 53.67578125 C-32.99109375 53.32515625 -33.615 52.97453125 -34.2578125 52.61328125 C-41.12946986 48.31102621 -45.26568374 41.39089094 -47.3671875 33.67578125 C-48.34245169 24.00252128 -47.57943423 16.41027556 -41.7890625 8.52734375 C-30.94759092 -4.60939434 -15.5042128 -8.67314874 0 0 Z " fill="#EAEEF0" transform="translate(272.3671875,229.32421875)"/>
<path d="M0 0 C24.42 0 48.84 0 74 0 C74 13.98769212 74 13.98769212 72.375 20.6875 C72.1982373 21.44224609 72.02147461 22.19699219 71.83935547 22.97460938 C68.89293647 35.04113552 65.12827623 46.71202686 58 57 C54.1118231 55.41603239 51.48999515 52.76614842 48.58886719 49.83178711 C48.06159027 49.30640854 47.53431335 48.78102997 46.99105835 48.23973083 C45.25474373 46.50711218 43.52571885 44.76741446 41.796875 43.02734375 C40.59226341 41.82153995 39.3872818 40.61610568 38.1819458 39.411026 C35.66050311 36.88802066 33.14245241 34.36169452 30.62695312 31.83276367 C27.39477695 28.58355242 24.1560111 25.34100871 20.91492844 22.10068417 C18.42860858 19.61409314 15.94489772 17.12491031 13.46207428 14.63482857 C12.26810335 13.43766593 11.07351735 12.2411164 9.87831879 11.04517937 C8.21419201 9.37889691 6.55339271 7.70937155 4.89355469 6.03881836 C4.39489899 5.54061584 3.89624329 5.04241333 3.38247681 4.52911377 C0 1.1144775 0 1.1144775 0 0 Z " fill="#F54C18" transform="translate(292,256)"/>
<path d="M0 0 C11.9863424 1.99772373 18.24106275 4.18232047 25.7109375 13.09375 C30.81901964 20.64751996 31.97897308 28.94816643 30.52734375 37.921875 C27.89324989 47.42188566 22.21517391 54.35846339 13.7265625 59.33203125 C8.53282741 61.8402685 6.25532056 62 0 62 C0 41.54 0 21.08 0 0 Z " fill="#D3DDE0" transform="translate(256,225)"/>
</svg>
